<svg width="50" height="50" viewBox="0 0 50 50" fill="none" xmlns="http://www.w3.org/2000/svg">
<path d="M24.4793 7.81217C22.6421 7.81197 20.8454 8.35155 19.3123 9.36389C17.7792 10.3762 16.5774 11.8167 15.856 13.5063C15.1347 15.196 14.9258 17.0603 15.2551 18.8677C15.5844 20.6751 16.4375 22.346 17.7085 23.6726V24.1174C16.7018 23.8725 15.6555 23.837 14.6345 24.0132C13.2414 22.0098 12.4964 19.6273 12.5001 17.1872C12.5001 10.5715 17.8637 5.20801 24.4793 5.20801C31.0949 5.20801 36.4585 10.5715 36.4585 17.1872C36.4602 18.7133 36.1695 20.2256 35.6022 21.6424C35.498 21.6153 35.3939 21.5903 35.2866 21.5674L33.0105 21.0788C33.6622 19.6505 33.9448 18.0814 33.8323 16.5155C33.7199 14.9496 33.2159 13.4369 32.3668 12.1164C31.5176 10.7959 30.3504 9.70984 28.9723 8.95779C27.5942 8.20573 26.0493 7.81181 24.4793 7.81217ZM22.396 17.1872C22.396 16.6346 22.6154 16.1047 23.0061 15.714C23.3968 15.3233 23.9267 15.1038 24.4793 15.1038C25.0318 15.1038 25.5617 15.3233 25.9524 15.714C26.3431 16.1047 26.5626 16.6346 26.5626 17.1872V23.4372C26.5626 24.0518 26.9918 24.582 27.5918 24.7101L34.3032 26.1507C34.7538 26.2475 35.1799 26.4352 35.5553 26.7024C35.9308 26.9696 36.2477 27.3107 36.4867 27.7047C36.7258 28.0987 36.8818 28.5373 36.9454 28.9937C37.009 29.4501 36.9787 29.9147 36.8564 30.359L34.4657 39.0528C34.3695 39.4028 34.1709 39.716 33.8955 39.9525C33.6201 40.1889 33.2804 40.3377 32.9199 40.3799L26.4178 41.1413C26.3375 41.1474 26.2577 41.1245 26.1928 41.0768C26.0743 40.9961 25.9802 40.8844 25.921 40.7538C24.4262 37.5538 20.6126 34.0726 13.1168 30.6288C13.2405 30.2517 13.439 29.9034 13.7003 29.6047C13.9616 29.3059 14.2804 29.0629 14.6376 28.89C14.9949 28.7172 15.3833 28.6181 15.7797 28.5986C16.1762 28.5792 16.5724 28.6397 16.9449 28.7768L20.6439 30.1382C20.8407 30.2107 21.0521 30.2346 21.2601 30.2078C21.4682 30.181 21.6666 30.1044 21.8387 29.9844C22.0107 29.8644 22.1512 29.7046 22.2483 29.5187C22.3453 29.3327 22.396 29.1261 22.396 28.9163V17.1872ZM24.4793 12.4997C23.2361 12.4997 22.0438 12.9935 21.1647 13.8726C20.2856 14.7517 19.7918 15.944 19.7918 17.1872V27.0497L17.8439 26.333C14.5751 25.1299 11.0178 27.1955 10.4428 30.632C10.3705 31.0716 10.4455 31.5228 10.6561 31.9154C10.8667 32.3079 11.2011 32.6199 11.6074 32.8028C19.2043 36.2268 22.4355 39.4455 23.5616 41.8549C24.071 42.9455 25.2522 43.8997 26.721 43.7278L33.223 42.9663C34.0985 42.8639 34.9236 42.5025 35.5924 41.9283C36.2612 41.3541 36.7434 40.5933 36.9772 39.7434L39.3678 31.0486C39.5839 30.2626 39.6372 29.4406 39.5245 28.6332C39.4118 27.8258 39.1355 27.0499 38.7125 26.353C38.2894 25.6562 37.7286 25.053 37.0643 24.5804C36.3999 24.1079 35.6462 23.7759 34.8491 23.6049L29.1668 22.3851V17.1872C29.1668 15.944 28.6729 14.7517 27.7938 13.8726C26.9148 12.9935 25.7225 12.4997 24.4793 12.4997Z" fill="white"/>
</svg>
